<svg xmlns="http://www.w3.org/2000/svg" width="221" height="47" viewBox="0 0 221 47" fill="none"><g clip-path="url(#clip0)"><path d="M62.5301 0H0V8.4049H62.5301V0Z" fill="#1e3a8a"></path><path d="M2.45508 17.9905L11.9644 22.7973V47.0001H19.696V19.396H22.546V47.0001H29.6568V19.396H32.7325V47.0001H39.9844V19.396H42.8344V47.0001H50.566V22.7973L60.1318 17.9905V10.2603H2.45508V17.9905Z" fill="#1e3a8a"></path><path d="M75.5381 0.590332H79.2628V21.4199H75.5381V0.590332Z" fill="#1e3a8a"></path><path d="M82.677 0.590332H87.6151L97.3219 16.1914H97.3784V0.590332H101.103V21.4199H96.3907L86.4582 5.34093H86.4017V21.4199H82.677V0.590332Z" fill="#1e3a8a"></path><path d="M115.184 4.91919C114.789 4.41321 114.224 3.99156 113.519 3.62613C112.813 3.28881 112.08 3.12015 111.346 3.12015C110.923 3.12015 110.471 3.17637 110.048 3.28881C109.625 3.40125 109.23 3.56991 108.863 3.79479C108.496 4.01967 108.214 4.30077 107.988 4.6662C107.762 5.03163 107.649 5.45328 107.649 5.98737C107.649 6.46524 107.734 6.85878 107.932 7.1961C108.129 7.53342 108.411 7.81453 108.75 8.03941C109.089 8.26429 109.512 8.48917 109.992 8.65783C110.471 8.82649 111.036 9.02326 111.628 9.19192C112.305 9.4168 112.983 9.64168 113.716 9.92278C114.422 10.2039 115.099 10.5693 115.691 11.0191C116.284 11.4688 116.792 12.031 117.159 12.7338C117.554 13.4084 117.723 14.2798 117.723 15.2918C117.723 16.4162 117.526 17.3719 117.102 18.2152C116.679 19.0585 116.143 19.7332 115.438 20.2954C114.76 20.8576 113.942 21.2511 113.011 21.5322C112.08 21.8133 111.12 21.9539 110.076 21.9539C108.722 21.9539 107.396 21.7009 106.098 21.1949C104.8 20.6889 103.727 19.9581 102.909 18.9742L105.561 16.5005C106.069 17.2033 106.747 17.7655 107.621 18.1871C108.468 18.6088 109.314 18.8056 110.133 18.8056C110.556 18.8056 111.007 18.7493 111.459 18.6369C111.91 18.5245 112.334 18.3558 112.672 18.1028C113.039 17.8498 113.321 17.5406 113.547 17.1471C113.773 16.7535 113.886 16.2757 113.886 15.7134C113.886 15.1512 113.744 14.7015 113.491 14.3361C113.237 13.9706 112.898 13.6614 112.446 13.4084C112.023 13.1554 111.515 12.9024 110.923 12.7057C110.33 12.5089 109.709 12.3121 109.06 12.0873C108.44 11.8905 107.791 11.6656 107.17 11.3845C106.549 11.1034 105.985 10.738 105.477 10.2882C104.969 9.83845 104.574 9.27625 104.263 8.62972C103.953 7.98319 103.784 7.16799 103.784 6.18414C103.784 5.11596 104.009 4.21644 104.461 3.45747C104.912 2.6985 105.477 2.05197 106.21 1.54598C106.916 1.04 107.734 0.674573 108.665 0.421583C109.568 0.168593 110.499 0.0561523 111.459 0.0561523C112.531 0.0561523 113.603 0.252923 114.704 0.618353C115.804 0.983784 116.736 1.54598 117.554 2.30496L115.184 4.91919Z" fill="#1e3a8a"></path><path d="M124.044 3.82299H117.639V0.590332H134.174V3.82299H127.769V21.4199H124.044V3.82299Z" fill="#1e3a8a"></path><path d="M135.416 0.590332H139.14V21.4199H135.416V0.590332Z" fill="#1e3a8a"></path><path d="M146.787 3.82299H140.382V0.590332H156.918V3.82299H150.512V21.4199H146.787V3.82299Z" fill="#1e3a8a"></path><path d="M174.807 13.7458C174.807 15.0108 174.582 16.1352 174.158 17.1472C173.735 18.1591 173.142 19.0024 172.381 19.7333C171.619 20.436 170.744 20.9701 169.728 21.3637C168.712 21.7572 167.584 21.9259 166.398 21.9259C165.185 21.9259 164.085 21.7291 163.069 21.3637C162.053 20.9701 161.15 20.436 160.388 19.7333C159.626 19.0305 159.034 18.1591 158.61 17.1472C158.187 16.1352 157.961 15.0108 157.961 13.7458V0.590332H161.686V13.6334C161.686 14.2518 161.771 14.8421 161.912 15.4324C162.081 16.0227 162.335 16.5568 162.702 17.0347C163.069 17.5126 163.549 17.878 164.141 18.1872C164.734 18.4683 165.496 18.637 166.37 18.637C167.245 18.637 168.007 18.4964 168.599 18.1872C169.192 17.9061 169.672 17.5126 170.039 17.0347C170.405 16.5568 170.659 16.0227 170.829 15.4324C170.998 14.8421 171.054 14.2237 171.054 13.6334V0.590332H174.779V13.7458H174.807Z" fill="#1e3a8a"></path><path d="M182.285 3.82299H175.88V0.590332H192.415V3.82299H186.01V21.4199H182.285V3.82299Z" fill="#1e3a8a"></path><path d="M75.5382 25.6362H82.7901C83.7777 25.6362 84.7371 25.7487 85.6683 25.9454C86.5995 26.1422 87.4178 26.4795 88.1232 26.9574C88.8287 27.4353 89.4213 28.0537 89.8445 28.8127C90.2678 29.5716 90.4935 30.4993 90.4935 31.5956C90.4935 33.1135 90.0703 34.3503 89.1955 35.278C88.349 36.2337 87.1639 36.8802 85.6965 37.2176L91.2836 46.4658H86.797L81.9436 37.6392H79.2347V46.4658H75.51V25.6362H75.5382ZM82.2822 34.6033C82.8184 34.6033 83.3545 34.5752 83.8906 34.4909C84.4267 34.4066 84.9064 34.266 85.3297 34.0411C85.753 33.8163 86.0916 33.507 86.3738 33.1135C86.6559 32.72 86.797 32.1859 86.797 31.5675C86.797 31.0053 86.6559 30.5274 86.402 30.1619C86.148 29.7965 85.8094 29.5154 85.4144 29.2905C85.0193 29.0657 84.5678 28.9251 84.0599 28.8408C83.552 28.7564 83.0723 28.7283 82.5926 28.7283H79.2347V34.5752H82.2822V34.6033Z" fill="#1e3a8a"></path><path d="M91.9326 35.9806C91.9326 34.3221 92.2148 32.8042 92.7791 31.4549C93.3435 30.1056 94.1054 28.9812 95.1212 28.0255C96.1088 27.0979 97.294 26.367 98.6766 25.861C100.031 25.355 101.527 25.1021 103.163 25.1021C104.8 25.1021 106.295 25.355 107.678 25.861C109.061 26.367 110.246 27.0979 111.262 28.0255C112.278 28.9531 113.039 30.1056 113.604 31.4549C114.168 32.8042 114.45 34.294 114.45 35.9806C114.45 37.611 114.168 39.1009 113.604 40.4501C113.039 41.7994 112.249 42.9519 111.262 43.9077C110.246 44.8915 109.061 45.6224 107.678 46.1846C106.295 46.7187 104.8 46.9998 103.163 46.9998C101.555 46.9998 100.059 46.7187 98.6766 46.1846C97.294 45.6505 96.137 44.8915 95.1212 43.9077C94.1336 42.9238 93.3435 41.7713 92.7791 40.4501C92.2148 39.1009 91.9326 37.611 91.9326 35.9806ZM95.9677 35.9806C95.9677 37.105 96.137 38.117 96.4757 39.0446C96.8143 39.9723 97.3222 40.7875 97.943 41.4621C98.592 42.1367 99.3539 42.6708 100.229 43.0644C101.103 43.4579 102.063 43.6266 103.135 43.6266C104.207 43.6266 105.167 43.4298 106.07 43.0644C106.944 42.6708 107.706 42.1367 108.355 41.4621C109.004 40.7875 109.484 39.9723 109.823 39.0446C110.161 38.117 110.331 37.0769 110.331 35.9806C110.331 34.9125 110.161 33.9005 109.823 32.9729C109.484 32.0452 109.004 31.2582 108.355 30.5554C107.734 29.8808 106.973 29.3186 106.07 28.925C105.195 28.5315 104.207 28.3347 103.107 28.3347C102.035 28.3347 101.047 28.5315 100.172 28.925C99.2974 29.3186 98.5355 29.8526 97.9148 30.5554C97.294 31.23 96.786 32.0452 96.4474 32.9729C96.137 33.9005 95.9677 34.9125 95.9677 35.9806Z" fill="#1e3a8a"></path><path d="M133.469 38.8198C133.469 40.0848 133.243 41.2092 132.82 42.2212C132.397 43.2331 131.804 44.0764 131.042 44.8073C130.28 45.51 129.406 46.0441 128.39 46.4377C127.374 46.8312 126.245 46.9999 125.06 46.9999C123.847 46.9999 122.746 46.8031 121.73 46.4377C120.715 46.0441 119.812 45.51 119.05 44.8073C118.288 44.1045 117.695 43.2331 117.272 42.2212C116.849 41.2092 116.623 40.0848 116.623 38.8198V25.6362H120.348V38.6793C120.348 39.2977 120.432 39.888 120.574 40.4783C120.743 41.0686 120.997 41.6027 121.364 42.0806C121.73 42.5585 122.21 42.9239 122.803 43.2331C123.395 43.5142 124.157 43.6829 125.032 43.6829C125.907 43.6829 126.669 43.5423 127.261 43.2331C127.854 42.952 128.333 42.5585 128.7 42.0806C129.067 41.6027 129.321 41.0686 129.49 40.4783C129.66 39.888 129.716 39.2696 129.716 38.6793V25.6362H133.469V38.8198Z" fill="#1e3a8a"></path><path d="M147.38 29.9929C146.985 29.4869 146.421 29.0653 145.715 28.6999C145.01 28.3625 144.276 28.1939 143.543 28.1939C143.119 28.1939 142.668 28.2501 142.245 28.3625C141.821 28.475 141.426 28.6436 141.059 28.8685C140.693 29.0934 140.41 29.3745 140.185 29.7399C139.959 30.1054 139.846 30.527 139.846 31.0611C139.846 31.539 139.931 31.9325 140.128 32.2698C140.326 32.6072 140.608 32.8883 140.947 33.1131C141.285 33.338 141.708 33.5629 142.188 33.7316C142.668 33.9002 143.232 34.097 143.825 34.2656C144.502 34.4905 145.179 34.7154 145.913 34.9965C146.618 35.2776 147.295 35.643 147.888 36.0928C148.481 36.5426 148.989 37.1048 149.355 37.8075C149.75 38.4822 149.92 39.3536 149.92 40.3655C149.92 41.4899 149.722 42.4457 149.299 43.289C148.876 44.1323 148.34 44.8069 147.634 45.3691C146.957 45.9313 146.139 46.3249 145.207 46.606C144.276 46.8871 143.317 47.0276 142.273 47.0276C140.918 47.0276 139.592 46.7746 138.294 46.2686C136.996 45.7627 135.924 45.0318 135.105 44.0479L137.758 41.5743C138.266 42.277 138.943 42.8392 139.818 43.2609C140.664 43.6825 141.511 43.8793 142.329 43.8793C142.752 43.8793 143.204 43.8231 143.655 43.7106C144.107 43.5982 144.53 43.4295 144.869 43.1765C145.236 42.9235 145.518 42.6143 145.743 42.2208C145.969 41.8272 146.082 41.3494 146.082 40.7872C146.082 40.225 145.941 39.7752 145.687 39.4098C145.433 39.0444 145.094 38.7351 144.643 38.4821C144.22 38.2292 143.712 37.9762 143.119 37.7794C142.527 37.5826 141.906 37.3859 141.257 37.161C140.636 36.9642 139.987 36.7393 139.366 36.4582C138.746 36.1771 138.181 35.8117 137.673 35.3619C137.165 34.9122 136.77 34.35 136.46 33.7034C136.15 33.0569 135.98 32.2417 135.98 31.2579C135.98 30.1897 136.206 29.2902 136.657 28.5312C137.109 27.7722 137.673 27.1257 138.407 26.6197C139.112 26.1137 139.931 25.7483 140.862 25.4953C141.765 25.2423 142.696 25.1299 143.655 25.1299C144.728 25.1299 145.8 25.3267 146.9 25.6921C148.001 26.0575 148.932 26.6197 149.75 27.3787L147.38 29.9929Z" fill="#1e3a8a"></path><path d="M163.154 29.9929C162.759 29.4869 162.194 29.0653 161.489 28.6999C160.783 28.3625 160.05 28.1939 159.316 28.1939C158.893 28.1939 158.441 28.2501 158.018 28.3625C157.595 28.475 157.2 28.6436 156.833 28.8685C156.466 29.0934 156.184 29.3745 155.958 29.7399C155.732 30.1054 155.619 30.527 155.619 31.0611C155.619 31.539 155.704 31.9325 155.902 32.2698C156.099 32.6072 156.381 32.8883 156.72 33.1131C157.059 33.338 157.482 33.5629 157.962 33.7316C158.441 33.9002 159.006 34.097 159.598 34.2656C160.275 34.4905 160.953 34.7154 161.686 34.9965C162.392 35.2776 163.069 35.643 163.661 36.0928C164.254 36.5426 164.762 37.1048 165.129 37.8075C165.524 38.4822 165.693 39.3536 165.693 40.3655C165.693 41.4899 165.496 42.4457 165.072 43.289C164.649 44.1323 164.113 44.8069 163.407 45.3691C162.73 45.9313 161.912 46.3249 160.981 46.606C160.05 46.8871 159.09 47.0276 158.046 47.0276C156.692 47.0276 155.365 46.7746 154.067 46.2686C152.769 45.7627 151.697 45.0318 150.879 44.0479L153.531 41.5743C154.039 42.277 154.716 42.8392 155.591 43.2609C156.438 43.6825 157.284 43.8793 158.103 43.8793C158.526 43.8793 158.977 43.8231 159.429 43.7106C159.88 43.5982 160.304 43.4295 160.642 43.1765C161.009 42.9235 161.291 42.6143 161.517 42.2208C161.743 41.8272 161.856 41.3494 161.856 40.7872C161.856 40.225 161.714 39.7752 161.46 39.4098C161.207 39.0444 160.868 38.7351 160.416 38.4821C159.993 38.2292 159.485 37.9762 158.893 37.7794C158.3 37.5826 157.679 37.3859 157.03 37.161C156.41 36.9642 155.761 36.7393 155.14 36.4582C154.519 36.1771 153.955 35.8117 153.447 35.3619C152.939 34.9122 152.544 34.35 152.233 33.7034C151.923 33.0569 151.754 32.2417 151.754 31.2579C151.754 30.1897 151.979 29.2902 152.431 28.5312C152.882 27.7722 153.447 27.1257 154.18 26.6197C154.886 26.1137 155.704 25.7483 156.635 25.4953C157.538 25.2423 158.469 25.1299 159.429 25.1299C160.501 25.1299 161.573 25.3267 162.674 25.6921C163.774 26.0575 164.706 26.6197 165.524 27.3787L163.154 29.9929Z" fill="#1e3a8a"></path><path d="M168.261 25.6362H182.116V28.8689H171.986V34.1536H181.58V37.2738H171.986V43.1488H182.652V46.4377H168.261V25.6362Z" fill="#1e3a8a"></path><path d="M191.654 25.6362H194.87L203.872 46.4658H199.611L197.664 41.6871H188.606L186.716 46.4658H182.539L191.654 25.6362ZM196.366 38.5106L193.149 30.0495L189.876 38.5106H196.366Z" fill="#1e3a8a"></path><path d="M221 38.8198C221 40.0848 220.774 41.2092 220.351 42.2212C219.928 43.2331 219.335 44.0764 218.573 44.8073C217.811 45.51 216.936 46.0441 215.921 46.4377C214.905 46.8312 213.776 46.9999 212.591 46.9999C211.378 46.9999 210.277 46.8031 209.261 46.4377C208.245 46.0441 207.342 45.51 206.581 44.8073C205.819 44.1045 205.226 43.2331 204.803 42.2212C204.38 41.2092 204.182 40.0848 204.182 38.8198V25.6362H207.907V38.6793C207.907 39.2977 207.991 39.888 208.133 40.4783C208.302 41.0686 208.556 41.6027 208.923 42.0806C209.29 42.5585 209.769 42.9239 210.362 43.2331C210.954 43.5142 211.716 43.6829 212.591 43.6829C213.466 43.6829 214.228 43.5423 214.82 43.2331C215.413 42.952 215.892 42.5585 216.259 42.0806C216.626 41.6027 216.88 41.0686 217.049 40.4783C217.219 39.888 217.275 39.2696 217.275 38.6793V25.6362H221V38.8198Z" fill="#1e3a8a"></path></g><defs><clipPath id="clip0"><rect width="221" height="47" fill="white"></rect></clipPath></defs></svg>